<svg xmlns="http://www.w3.org/2000/svg" width="48" height="48"><g fill="none" fill-rule="evenodd"><path fill="#13C1AC" fill-opacity=".4" d="M11.31 38.52h2.922a1.895 1.895 0 0 0 1.901-1.883V23.885l.968 12.893c.037.501.27.958.655 1.287a1.894 1.894 0 0 0 1.382.452l2.914-.215a1.895 1.895 0 0 0 1.3-.65c.33-.38.493-.867.456-1.369L22.59 20.08l2.21 16.802a1.898 1.898 0 0 0 2.13 1.625l2.898-.374c.504-.065.952-.32 1.262-.719.31-.398.444-.894.378-1.392l-.456-3.476 1.586 4.69a1.902 1.902 0 0 0 2.407 1.188l2.77-.92a1.883 1.883 0 0 0 1.2-2.386L35 23.365a1.906 1.906 0 0 0-2.408-1.187l-2.77.92c-.017.005-.032.014-.05.021l-1.035-7.885a1.903 1.903 0 0 0-2.13-1.625l-2.898.373a1.892 1.892 0 0 0-1.49 1.117l-.267-3.54a1.89 1.89 0 0 0-2.036-1.738L17 10.036c-.518.038-.971.28-1.288.64a1.898 1.898 0 0 0-1.48-.716H11.31a1.895 1.895 0 0 0-1.902 1.884v24.793c0 1.038.853 1.884 1.902 1.884z"/><path fill="#13C1AC" d="M14.212 11.844v24.773l-2.882.02-.02-24.773 2.902-.02zm5.824-.143l1.854 24.703-2.873.233-1.874-24.703 2.893-.233zm6.795 3.777l2.728 20.77-2.855.389-2.748-20.766 2.875-.393zm6.346 8.492l3.968 11.735-2.726.926-3.987-11.729 2.745-.932zM11.31 38.52h2.922a1.895 1.895 0 0 0 1.901-1.883V23.885l.968 12.893c.037.501.27.958.655 1.287a1.894 1.894 0 0 0 1.382.452l2.914-.215a1.895 1.895 0 0 0 1.3-.65c.33-.38.493-.867.456-1.369L22.59 20.08l2.21 16.802a1.898 1.898 0 0 0 2.13 1.625l2.898-.374c.504-.065.952-.32 1.262-.719.31-.398.444-.894.378-1.392l-.456-3.476 1.586 4.69a1.902 1.902 0 0 0 2.407 1.188l2.77-.92a1.883 1.883 0 0 0 1.2-2.386L35 23.365a1.906 1.906 0 0 0-2.408-1.187l-2.77.92c-.017.005-.032.014-.05.021l-1.035-7.885a1.903 1.903 0 0 0-2.13-1.625l-2.898.373a1.892 1.892 0 0 0-1.49 1.117l-.267-3.54a1.89 1.89 0 0 0-2.036-1.738L17 10.036c-.518.038-.971.28-1.288.64a1.898 1.898 0 0 0-1.48-.716H11.31a1.895 1.895 0 0 0-1.902 1.884v24.793c0 1.038.853 1.884 1.902 1.884z"/><path fill="#FFF" fill-opacity=".7" d="M20.036 11.701l1.854 24.703-2.873.233-1.874-24.703zM33.177 23.97l3.968 11.735-2.726.926-3.987-11.729z"/></g></svg>