<svg xmlns="http://www.w3.org/2000/svg" width="48" height="48"><g fill="none" fill-rule="evenodd"><path fill="#CFD8DC" d="M38.29 21.265c0-6.859-5.58-12.44-12.44-12.44a2.874 2.874 0 0 0-2.872 2.871v10.526h-5.98c-.125 0-.22-.104-.27-.202-.987-2.001-3.215-3.045-5.407-2.537a4.736 4.736 0 0 0-3.526 3.53c-.525 2.28.64 4.598 2.772 5.512.088.037.143.097.152.135.624 2.854 2.849 5.062 5.593 5.765a2.851 2.851 0 0 0-.99 2.15 2.874 2.874 0 0 0 2.871 2.872 2.874 2.874 0 0 0 2.871-2.871c0-.738-.288-1.405-.746-1.914h8.192a2.852 2.852 0 0 0-.747 1.914 2.874 2.874 0 0 0 2.871 2.87 2.874 2.874 0 0 0 2.871-2.87c0-.861-.39-1.626-.992-2.153 3.314-.836 5.778-3.832 5.778-7.4v-.987a3.79 3.79 0 0 0-1.03-2.587 2.853 2.853 0 0 0 1.03-2.184z"/><path fill="#6E2A83" d="M36.376 27.022a5.733 5.733 0 0 1-5.727 5.726H18.177c-2.668 0-5.02-1.89-5.589-4.496-.142-.652-.616-1.209-1.268-1.487-1.3-.557-1.983-1.924-1.66-3.324a2.85 2.85 0 0 1 2.802-2.178c1.209 0 2.128.749 2.55 1.604.385.783 1.146 1.269 1.985 1.269h17.48c1.048 0 1.9.853 1.9 1.9v.986zm-5.742 10.51a.958.958 0 0 1 0-1.913.958.958 0 0 1 0 1.914zm-12.441 0a.958.958 0 0 1 0-1.913.958.958 0 0 1 0 1.914zm7.656-26.793c1.59 0 3.095.366 4.448 1l-5.405 8.238v-8.28a.96.96 0 0 1 .957-.958zm9.354 5.718l-8.516 4.271 5.265-8.023a10.605 10.605 0 0 1 3.25 3.752zm1.173 4.808c0 .528-.43.957-.957.957h-7.441l7.95-3.987a10.5 10.5 0 0 1 .448 3.03zm1.914 0c0 .879-.405 1.657-1.028 2.184a3.79 3.79 0 0 1 1.028 2.586v.987c0 3.57-2.463 6.565-5.777 7.4.603.528.992 1.292.992 2.154a2.874 2.874 0 0 1-2.87 2.87 2.874 2.874 0 0 1-2.872-2.87c0-.738.288-1.405.747-1.914h-8.193a2.85 2.85 0 0 1 .747 1.914 2.874 2.874 0 0 1-2.871 2.87 2.874 2.874 0 0 1-2.871-2.87c0-.86.388-1.625.99-2.151-2.744-.703-4.97-2.911-5.594-5.765-.008-.038-.064-.098-.15-.136-2.133-.914-3.299-3.231-2.773-5.511a4.736 4.736 0 0 1 3.525-3.53c2.193-.509 4.42.535 5.409 2.537.048.098.144.202.268.202h5.98V11.696a2.874 2.874 0 0 1 2.872-2.87c6.86 0 12.441 5.58 12.441 12.44zm-26.519 2.192c-.172.182-.277.43-.277.68 0 .258.105.497.277.679.182.172.43.277.68.277.248 0 .497-.105.68-.277a.988.988 0 0 0 .277-.68c0-.248-.106-.497-.278-.68-.354-.353-1.005-.353-1.359 0z"/><path fill="#FFF" d="M25.849 10.74c1.59 0 3.095.365 4.448 1l-5.405 8.237v-8.28a.96.96 0 0 1 .957-.958zm10.527 10.525c0 .528-.43.957-.957.957h-7.441l7.95-3.987a10.5 10.5 0 0 1 .448 3.03z" opacity=".4"/><path fill="#253238" d="M36.376 27.022a5.733 5.733 0 0 1-5.727 5.726H18.177c-2.668 0-5.02-1.89-5.589-4.496-.142-.652-.616-1.209-1.268-1.487-1.3-.557-1.983-1.924-1.66-3.324a2.85 2.85 0 0 1 2.802-2.178c1.209 0 2.128.749 2.55 1.604.385.783 1.146 1.269 1.985 1.269h17.48c1.048 0 1.9.853 1.9 1.9v.986zm-5.742 10.51a.958.958 0 0 1 0-1.913.958.958 0 0 1 0 1.914zm-12.441 0a.958.958 0 0 1 0-1.913.958.958 0 0 1 0 1.914zm7.656-26.793c1.59 0 3.095.366 4.448 1l-5.405 8.238v-8.28a.96.96 0 0 1 .957-.958zm9.354 5.718l-8.516 4.271 5.265-8.023a10.605 10.605 0 0 1 3.25 3.752zm1.173 4.808c0 .528-.43.957-.957.957h-7.441l7.95-3.987a10.5 10.5 0 0 1 .448 3.03zm1.914 0c0 .879-.405 1.657-1.028 2.184a3.79 3.79 0 0 1 1.028 2.586v.987c0 3.57-2.463 6.565-5.777 7.4.603.528.992 1.292.992 2.154a2.874 2.874 0 0 1-2.87 2.87 2.874 2.874 0 0 1-2.872-2.87c0-.738.288-1.405.747-1.914h-8.193a2.85 2.85 0 0 1 .747 1.914 2.874 2.874 0 0 1-2.871 2.87 2.874 2.874 0 0 1-2.871-2.87c0-.86.388-1.625.99-2.151-2.744-.703-4.97-2.911-5.594-5.765-.008-.038-.064-.098-.15-.136-2.133-.914-3.299-3.231-2.773-5.511a4.736 4.736 0 0 1 3.525-3.53c2.193-.509 4.42.535 5.409 2.537.048.098.144.202.268.202h5.98V11.696a2.874 2.874 0 0 1 2.872-2.87c6.86 0 12.441 5.58 12.441 12.44zm-26.519 2.192c-.172.182-.277.43-.277.68 0 .258.105.497.277.679.182.172.43.277.68.277.248 0 .497-.105.68-.277a.988.988 0 0 0 .277-.68c0-.248-.106-.497-.278-.68-.354-.353-1.005-.353-1.359 0z"/><path fill="#FFF" d="M25.849 10.74c1.59 0 3.095.365 4.448 1l-5.405 8.237v-8.28a.96.96 0 0 1 .957-.958zm10.527 10.525c0 .528-.43.957-.957.957h-7.441l7.95-3.987a10.5 10.5 0 0 1 .448 3.03z" opacity=".5"/></g></svg>