<svg xmlns="http://www.w3.org/2000/svg" width="48" height="48"><g fill="none" fill-rule="evenodd"><path fill="#253238" d="M38 37h-8v-5h8v5zm-18-5h8v5h-8v-5zm-10 0h8v5h-8v-5zm5-7h8v5h-8v-5zm2.4-2.2l2.6-3.467V23h-2.823c.081-.059.162-.118.223-.2zm-5-5l4.8-6.4 4 3-4.8 6.4-4-3zM30 23h-8v-5h8v5zm3 7h-8v-5h8v5zm2 0v-6a1 1 0 0 0-1-1h-2v-6a1 1 0 0 0-1-1h-8.5l.9-1.2a1 1 0 0 0-.2-1.4l-5.6-4.2a.996.996 0 0 0-1.4.2l-6 8a1 1 0 0 0 .2 1.4L16 23h-2a1 1 0 0 0-1 1v6H9a1 1 0 0 0-1 1v7a1 1 0 0 0 1 1h30a1 1 0 0 0 1-1v-7a1 1 0 0 0-1-1h-4z"/><path fill="#CFD8DC" d="M33 30h-8v-5h8zm-15.006 6.98h-8v-5h8zm19.982 0h-8v-5h8zM12.4 17.8l4.8-6.4 4 3-4.8 6.4zM15 25h8v5h-8zm5 7h8v5h-8zm10-9h-8v-5h8z"/><path fill="#FFF" opacity=".5" d="M30 23h-8v-5h8zM17.994 36.98h-8v-5h8zm20.006 0h-8v-5h8z"/></g></svg>