<svg xmlns="http://www.w3.org/2000/svg" width="48" height="48"><g fill="none" fill-rule="evenodd"><path fill="#CFD8DC" d="M34.142 34.373c5.972-5.972 5.972-15.69 0-21.662-5.973-5.972-15.692-5.972-21.663 0-5.972 5.972-5.972 15.69 0 21.662a15.266 15.266 0 0 0 10.83 4.48c3.924 0 7.847-1.493 10.833-4.48z"/><path fill="#253238" d="M9.918 23.396a10.54 10.54 0 0 0 3.254.526c2.44 0 4.836-.85 6.756-2.448l2.068 2.069-6.783 6.782a.96.96 0 0 0 1.356 1.357l6.783-6.783 2.07 2.069a10.551 10.551 0 0 0-1.943 9.965c-.057.001-.112.009-.17.009a13.314 13.314 0 0 1-9.473-3.925 13.311 13.311 0 0 1-3.925-9.474c0-.05.006-.098.007-.147zm3.292-8.639l5.345 5.344a8.621 8.621 0 0 1-8.464 1.328 13.261 13.261 0 0 1 3.12-6.672zm1.358-1.354a13.26 13.26 0 0 1 6.68-3.087 8.623 8.623 0 0 1-1.337 8.429l-5.343-5.342zm18.217.664a13.315 13.315 0 0 1 3.925 9.476c0 .037-.005.074-.006.112a10.555 10.555 0 0 0-9.925 1.957l-2.07-2.07 6.783-6.782a.96.96 0 0 0-1.356-1.357l-6.784 6.783-2.069-2.07a10.55 10.55 0 0 0 1.94-9.969c.03 0 .058-.004.087-.004 3.579 0 6.944 1.394 9.475 3.924zm.665 18.216l-5.3-5.3a8.626 8.626 0 0 1 8.383-1.351 13.256 13.256 0 0 1-3.083 6.651zm-6.656-3.943l5.302 5.302a13.259 13.259 0 0 1-6.643 3.115 8.622 8.622 0 0 1 1.34-8.417zm7.348 6.033c5.972-5.972 5.972-15.69 0-21.662-5.973-5.972-15.692-5.972-21.663 0-5.972 5.972-5.972 15.69 0 21.662a15.266 15.266 0 0 0 10.83 4.48c3.924 0 7.847-1.493 10.833-4.48z"/><path fill="#FFF" d="M9.918 23.396a10.54 10.54 0 0 0 3.254.526c2.44 0 4.836-.85 6.756-2.448l2.068 2.069-6.783 6.782a.96.96 0 0 0 1.356 1.357l6.783-6.783 2.07 2.069a10.551 10.551 0 0 0-1.943 9.965c-.057.001-.112.009-.17.009a13.314 13.314 0 0 1-9.473-3.925 13.311 13.311 0 0 1-3.925-9.474c0-.05.006-.098.007-.147zm22.867-9.329a13.315 13.315 0 0 1 3.925 9.476c0 .037-.005.074-.006.112a10.555 10.555 0 0 0-9.925 1.957l-2.07-2.07 6.783-6.782a.96.96 0 0 0-1.356-1.357l-6.784 6.783-2.069-2.07a10.55 10.55 0 0 0 1.94-9.969c.03 0 .058-.004.087-.004 3.579 0 6.944 1.394 9.475 3.924z" opacity=".5"/></g></svg>