<svg xmlns="http://www.w3.org/2000/svg" width="48" height="48"><g fill="none" fill-rule="evenodd"><path fill="#CFD8DC" d="M33.51 8.463H14.452a2.913 2.913 0 0 0-2.91 2.91v23.843c0 1.591.956 2.885 2.87 2.906v.005c0 .528.428.957.957.957h1.914a.957.957 0 0 0 .956-.957h11.483c0 .528.429.957.957.957h1.914a.957.957 0 0 0 .957-.957l-.001-.005a2.911 2.911 0 0 0 2.872-2.906V11.373a2.913 2.913 0 0 0-2.911-2.91z"/><g fill="#FFF"><path fill-opacity=".3" d="M34.507 35.216c0 .55-.447.997-.997.997H14.452a.998.998 0 0 1-.997-.997V11.373c0-.55.447-.996.997-.996H33.51c.55 0 .997.447.997.996v23.843zM23.98 32.385a6.706 6.706 0 0 0 6.698-6.698 6.706 6.706 0 0 0-6.698-6.699 6.706 6.706 0 0 0-6.699 6.699 6.706 6.706 0 0 0 6.699 6.698z"/><path fill-opacity=".5" d="M23.98 32.385a6.706 6.706 0 0 1-6.698-6.698 6.706 6.706 0 0 1 6.699-6.699 6.706 6.706 0 0 1 6.698 6.699 6.706 6.706 0 0 1-6.698 6.698"/></g><path fill="#FFF" fill-opacity=".5" d="M23.981 32.385a6.706 6.706 0 0 1-6.698-6.698 6.706 6.706 0 0 1 6.698-6.698 6.706 6.706 0 0 1 6.699 6.698 6.706 6.706 0 0 1-6.699 6.698"/><path fill="#253238" d="M34.507 35.216c0 .55-.447.997-.997.997H14.452a.998.998 0 0 1-.997-.997V11.373c0-.55.447-.996.997-.996H33.51c.55 0 .997.447.997.996v23.843zM33.51 8.463a2.913 2.913 0 0 1 2.911 2.91v23.843a2.911 2.911 0 0 1-2.872 2.906l.001.005a.957.957 0 0 1-.957.957H30.68a.957.957 0 0 1-.957-.957H18.24a.957.957 0 0 1-.957.957h-1.914a.957.957 0 0 1-.957-.957v-.005c-1.914-.02-2.87-1.314-2.87-2.906V11.373a2.913 2.913 0 0 1 2.91-2.91H33.51zm-2.553 4.105c-.172.182-.277.43-.277.68 0 .248.105.497.277.679.182.172.43.277.68.277.248 0 .497-.105.679-.277.172-.182.277-.431.277-.68a1.01 1.01 0 0 0-.277-.68 1.002 1.002 0 0 0-1.359 0zm-2.191 1.636c.249 0 .497-.105.68-.277.171-.182.277-.431.277-.68 0-.249-.106-.497-.278-.68-.354-.353-1.005-.353-1.359 0a1.01 1.01 0 0 0-.277.68c0 .249.105.498.277.68.182.172.43.277.68.277zm-2.871 0c.249 0 .498-.105.68-.277.172-.182.277-.431.277-.68 0-.249-.105-.497-.278-.68-.363-.353-1.004-.353-1.358 0a1.007 1.007 0 0 0-.278.68c0 .249.105.498.278.68.181.172.43.277.679.277zm-9.569 0h4.785a.957.957 0 0 0 0-1.914h-4.785a.957.957 0 0 0 0 1.914zm7.655 18.181a6.706 6.706 0 0 1-6.698-6.698 6.706 6.706 0 0 1 6.698-6.698 6.706 6.706 0 0 1 6.699 6.698 6.706 6.706 0 0 1-6.699 6.698zm-8.612-6.698c0 4.748 3.864 8.612 8.612 8.612s8.612-3.864 8.612-8.612-3.864-8.612-8.612-8.612-8.612 3.864-8.612 8.612zm8.612-4.785a4.79 4.79 0 0 0-4.784 4.785.957.957 0 0 0 1.914 0 2.874 2.874 0 0 1 2.87-2.87.957.957 0 0 0 0-1.915z"/></g></svg>