<svg xmlns="http://www.w3.org/2000/svg" width="48" height="48"><g fill="none" fill-rule="evenodd"><path fill="#13C1AC" fill-opacity=".35" d="M18 14.005h-6.02A2.984 2.984 0 0 0 9 16.986v10.047c0 .73.406 1.362 1 1.7v7.327a2.928 2.928 0 0 0 2.924 2.924h22.152A2.928 2.928 0 0 0 38 36.06v-7.328c.594-.337 1-.968 1-1.698V16.986a2.984 2.984 0 0 0-2.98-2.981H18z"/><path fill="#FFF" fill-opacity=".5" d="M26 25.25v3.745h-4V25.25c0-.128.105-.235.235-.235h3.53c.13 0 .235.107.235.235z"/><path fill="#13C1AC" d="M36.02 14.005A2.984 2.984 0 0 1 39 16.986v10.047c0 .73-.406 1.362-1 1.7v7.327a2.928 2.928 0 0 1-2.924 2.924H12.924A2.928 2.928 0 0 1 10 36.06v-7.328c-.594-.337-1-.968-1-1.698V16.986a2.984 2.984 0 0 1 2.98-2.981H18v-2.01a2.983 2.983 0 0 1 2.979-2.98H27a2.983 2.983 0 0 1 2.979 2.98v2.01h6.041zM36 36.06v-7.065h-8v.834c0 .642-.523 1.166-1.167 1.166h-5.666A1.168 1.168 0 0 1 20 29.83v-.834h-8v7.065c0 .51.415.924.924.924h22.152A.925.925 0 0 0 36 36.06zm-11-4.065a1 1 0 1 1 0 2h-2a1 1 0 1 1 0-2h2zm1-6.745a.235.235 0 0 0-.235-.235h-3.53a.235.235 0 0 0-.235.235v3.745h4V25.25zm-2.71 1.055c.37-.37 1.04-.37 1.42 0 .18.19.29.45.29.71a.99.99 0 0 1-1 1 .99.99 0 0 1-1-1c0-.26.11-.52.29-.71zm-11.31-10.3c-.54 0-.98.44-.98.982v10.009h9V25.25a2.238 2.238 0 0 1 2.235-2.236h3.53A2.238 2.238 0 0 1 28 25.25v1.745h9V16.986a.982.982 0 0 0-.98-.98H11.98zm8.02-4.01v2.01h7.979v-2.01a.98.98 0 0 0-.979-.98h-6.021a.98.98 0 0 0-.979.98z"/></g></svg>