<svg xmlns="http://www.w3.org/2000/svg" width="48" height="48"><g fill="none" fill-rule="evenodd"><path fill="#13C1AC" d="M18 31.996c0 2.206-1.794 4-4 4s-4-1.794-4-4 1.794-4 4-4 4 1.794 4 4" opacity=".7"/><path fill="#FFF" d="M18 31.996c0 2.206-1.794 4-4 4s-4-1.794-4-4 1.794-4 4-4 4 1.794 4 4" opacity=".65"/><path fill="#13C1AC" d="M31 35.996c-3.86 0-7-3.14-7-7 0-3.005 1.907-5.566 4.572-6.557l1.45 6.767a1.001 1.001 0 0 0 1.956-.42l-1.45-6.767c.157-.009.313-.023.472-.023 3.86 0 7 3.141 7 7 0 3.86-3.14 7-7 7m-13-4c0 2.206-1.794 4-4 4s-4-1.794-4-4 1.794-4 4-4 4 1.794 4 4m13-12c4.962 0 9 4.037 9 9s-4.038 9-9 9-9-4.037-9-9c0-3.483 1.993-6.505 4.896-8H21.5c-3.253 0-5.948 2.22-6.419 5.103 2.794.51 4.919 2.958 4.919 5.897 0 3.31-2.691 6-6 6s-6-2.69-6-6c0-2.988 2.198-5.466 5.061-5.919.343-2.814 2.245-5.183 4.87-6.332-1.23-.83-2.182-2.024-2.635-3.445a.968.968 0 0 1 .012-.584c-2.033-.299-2.765-.763-3.015-1.013a1 1 0 1 1 1.346-1.477c.135.083 1.403.77 6.361.77a1 1 0 1 1 0 2c-1.033 0-1.925-.03-2.705-.079.698 1.821 2.588 3.08 4.705 3.08h5.834l-.812-3.79c-.008-.037.002-.072-.001-.108-.004-.036-.021-.067-.021-.103 0-.032.016-.06.019-.09a.89.89 0 0 1 .04-.2.96.96 0 0 1 .069-.173.968.968 0 0 1 .105-.156.957.957 0 0 1 .473-.32c.03-.01.053-.032.085-.039.035-.007.069.002.105 0 .036-.004.067-.022.104-.022h2a1.001 1.001 0 0 0 0-2h-4a1 1 0 1 1 0-2h4c1.654 0 3 1.346 3 3s-1.346 3-3 3h-.763l.867 4.046c.295-.029.594-.046.896-.046zm-17.92 11.62a.995.995 0 0 0 .21 1.09c.19.19.44.29.71.29a.99.99 0 0 0 1-1c0-.13-.02-.26-.08-.38-.05-.12-.12-.23-.21-.33-.1-.09-.2-.16-.33-.21a1 1 0 0 0-1.09.21c-.09.1-.16.21-.21.33zm19.21-21.91c-.09-.1-.16-.21-.21-.33a.991.991 0 0 1-.08-.38c0-.26.11-.52.29-.71a1.032 1.032 0 0 1 1.42 0c.18.19.29.45.29.71 0 .13-.03.26-.08.38s-.12.23-.21.33a.99.99 0 0 1-.71.29.826.826 0 0 1-.38-.08.973.973 0 0 1-.33-.21z"/><path fill="#13C1AC" d="M31 35.996c-3.86 0-7-3.14-7-7 0-3.005 1.907-5.566 4.572-6.557l1.45 6.767a1.001 1.001 0 0 0 1.956-.42l-1.45-6.767c.157-.009.313-.023.472-.023 3.86 0 7 3.141 7 7 0 3.86-3.14 7-7 7" opacity=".434"/></g></svg>