<svg xmlns="http://www.w3.org/2000/svg" width="48" height="48"><g fill="none" fill-rule="evenodd"><path fill="#13C1AC" d="M36 23.77V12a2.975 2.975 0 0 0-2.972-2.972H10.972A2.975 2.975 0 0 0 8 12v17c0 2.505 1.869 4 5 4h5.755c-.389 1.821-1.355 3.972-3.755 3.972a1 1 0 1 0 0 2h14a1 1 0 0 0 0-2c-1.923 0-3.179-1.343-3.746-3.972h3.175v.543a5.435 5.435 0 0 0 5.428 5.429h.714A5.436 5.436 0 0 0 40 33.543v-4.542c0-2.498-1.699-4.602-4-5.231z" opacity=".35"/><path fill="#13C1AC" d="M38 33.543a3.433 3.433 0 0 1-3.429 3.429h-.714a3.432 3.432 0 0 1-3.428-3.429v-4.542a3.432 3.432 0 0 1 3.428-3.429h.714A3.433 3.433 0 0 1 38 29.001v4.542zM28.525 28H10V12c0-.536.436-.972.972-.972h22.056c.536 0 .972.436.972.972v11.572h-.143c-2.651 0-4.86 1.911-5.332 4.428zM13 31c-1.708 0-2.444-.488-2.761-1h18.19v1H13zm11.833 5.972H19.17c.777-.986 1.313-2.336 1.605-3.972h2.47c0 .064-.014.125-.001.19.308 1.565.847 2.835 1.589 3.782zM36 12v11.77c2.301.629 4 2.733 4 5.231v4.542a5.436 5.436 0 0 1-5.429 5.429h-.714a5.435 5.435 0 0 1-5.428-5.429V33h-3.175c.567 2.629 1.823 3.972 3.746 3.972a1 1 0 1 1 0 2H15a1 1 0 0 1 0-2c2.4 0 3.366-2.151 3.755-3.972H13c-3.131 0-5-1.495-5-4V12a2.975 2.975 0 0 1 2.972-2.972h22.056A2.975 2.975 0 0 1 36 12zm-13.29.29a1 1 0 0 0-1.09-.21c-.13.05-.23.12-.33.21-.09.1-.16.21-.21.33a.995.995 0 0 0 .21 1.09c.19.19.44.29.71.29a.99.99 0 0 0 1-1c0-.13-.02-.26-.08-.38-.05-.12-.12-.23-.21-.33z"/><path fill="#FFF" d="M13 31c-1.708 0-2.444-.488-2.761-1h18.19v1H13zm25 2.543a3.433 3.433 0 0 1-3.429 3.429h-.714a3.432 3.432 0 0 1-3.428-3.429v-4.542a3.432 3.432 0 0 1 3.428-3.429h.714A3.433 3.433 0 0 1 38 29.001v4.542z" opacity=".5"/><path fill="#13C1AC" d="M34.286 26.972a1 1 0 0 0-1 1V30a1 1 0 1 0 2 0v-2.028a1 1 0 0 0-1-1"/></g></svg>