<svg xmlns="http://www.w3.org/2000/svg" width="48" height="48"><g fill="none" fill-rule="evenodd"><path fill="#13C1AC" d="M28.174 30.792a10.025 10.025 0 0 1-7.976-3.118l.59-.682a9.972 9.972 0 0 0 6.226 1.627c5.5-.396 9.652-5.193 9.256-10.693a9.884 9.884 0 0 0-.633-2.832 9.909 9.909 0 0 1 1.792 5.005c.396 5.5-3.755 10.297-9.255 10.693zM12.3 36.798a.997.997 0 0 1-.684.343.964.964 0 0 1-.726-.242h-.001a.994.994 0 0 1-.342-.684.989.989 0 0 1 .24-.726l3.928-4.537 1.512 1.31-3.927 4.536zm27.123-16.844c-.428-5.922-5.217-10.692-11.142-11.097a1.009 1.009 0 0 0-1.058.858 1.001 1.001 0 0 0 .778 1.118c3.44.75 6.02 3.726 6.273 7.237.317 4.4-3.004 8.238-7.404 8.555a7.958 7.958 0 0 1-5.27-1.512 1 1 0 0 0-1.651-.21l-3.926 4.537-.756-.654a1 1 0 0 0-1.41.102l-4.581 5.293a2.973 2.973 0 0 0-.724 2.178 2.98 2.98 0 0 0 1.029 2.052 2.973 2.973 0 0 0 2.179.725 2.981 2.981 0 0 0 2.053-1.03l4.58-5.293a1 1 0 0 0-.101-1.41l-.756-.654 1.342-1.55a11.995 11.995 0 0 0 9.439 3.587c6.599-.475 11.58-6.23 11.106-12.832z"/><path fill="#13C1AC" fill-opacity=".6" d="M12.3 36.798a.997.997 0 0 1-.683.343.964.964 0 0 1-.726-.242h-.001a.994.994 0 0 1-.342-.684.989.989 0 0 1 .24-.726l3.928-4.537 1.512 1.31-3.927 4.536z"/><path fill="#13C1AC" d="M28.174 30.792a10.025 10.025 0 0 1-7.976-3.118l.59-.682a9.972 9.972 0 0 0 6.226 1.627c5.5-.396 9.652-5.193 9.256-10.693a9.884 9.884 0 0 0-.633-2.832 9.909 9.909 0 0 1 1.792 5.005c.396 5.5-3.755 10.297-9.255 10.693z"/><path fill="#FFF" fill-opacity=".8" d="M28.174 30.792a10.025 10.025 0 0 1-7.976-3.118l.59-.682a9.972 9.972 0 0 0 6.226 1.627c5.5-.396 9.652-5.193 9.256-10.693a9.884 9.884 0 0 0-.633-2.832 9.909 9.909 0 0 1 1.792 5.005c.396 5.5-3.755 10.297-9.255 10.693z"/></g></svg>