<svg xmlns="http://www.w3.org/2000/svg" width="48" height="48"><g fill="none" fill-rule="evenodd"><path fill="#13C1AC" d="M12.457 19.99a3.848 3.848 0 1 0 0 7.697 3.848 3.848 0 0 0 0-7.697m11.544 0a3.848 3.848 0 1 0 0 7.697 3.848 3.848 0 0 0 0-7.697m11.544 0a3.848 3.848 0 1 0 0 7.697 3.848 3.848 0 0 0 0-7.697"/><path fill="#13C1AC" d="M12.457 19.99a3.848 3.848 0 1 0 0 7.697 3.848 3.848 0 0 0 0-7.697m0 1.924c1.061 0 1.924.863 1.924 1.924a1.926 1.926 0 0 1-1.924 1.924 1.926 1.926 0 0 1-1.924-1.924c0-1.06.863-1.924 1.924-1.924zm11.544-1.924a3.848 3.848 0 1 1 0 7.697 3.848 3.848 0 0 1 0-7.697zm0 1.924a1.926 1.926 0 0 0-1.924 1.924c0 1.062.863 1.924 1.924 1.924a1.926 1.926 0 0 0 1.924-1.924 1.926 1.926 0 0 0-1.924-1.924zm11.544-1.924a3.848 3.848 0 1 1 0 7.697 3.848 3.848 0 0 1 0-7.697zm0 1.924a1.926 1.926 0 0 0-1.924 1.924c0 1.062.863 1.924 1.924 1.924a1.926 1.926 0 0 0 1.924-1.924 1.926 1.926 0 0 0-1.924-1.924z"/><path fill="#FFF" fill-opacity=".5" d="M12.457 21.914c1.061 0 1.924.863 1.924 1.924a1.926 1.926 0 0 1-1.924 1.924 1.926 1.926 0 0 1-1.924-1.924c0-1.06.863-1.924 1.924-1.924m11.544 0c1.062 0 1.924.863 1.924 1.924a1.926 1.926 0 0 1-1.924 1.924 1.926 1.926 0 0 1-1.924-1.924c0-1.06.863-1.924 1.924-1.924m11.544 0c1.062 0 1.924.863 1.924 1.924a1.926 1.926 0 0 1-1.924 1.924 1.926 1.926 0 0 1-1.924-1.924c0-1.06.863-1.924 1.924-1.924"/></g></svg>