<svg xmlns="http://www.w3.org/2000/svg" width="48" height="48"><g fill="none" fill-rule="evenodd"><path fill="#CFD8DC" d="M24.342 10.5c-9.3 0-15.31 5.042-15.31 12.846 0 5.137 2.458 10.455 6.117 13.232a3.361 3.361 0 0 0 2.096.715c1.227-.001 2.466-.592 3.607-1.137 1.158-.553 2.355-1.125 3.49-1.125 1.136 0 2.333.572 3.49 1.125 1.802.86 3.843 1.835 5.704.422 3.66-2.778 6.116-8.096 6.116-13.232 0-7.804-6.009-12.846-15.31-12.846"/><path fill="#253238" d="M32.372 35.072c-.882.671-1.984.198-3.709-.625a22.74 22.74 0 0 0-1.787-.787c-.06-.053-.116-.11-.191-.148l-3.828-1.897a.96.96 0 0 0-1.284.424A.945.945 0 0 0 22 33.31l.335.166c-.818.26-1.594.625-2.314.97-1.726.824-2.827 1.294-3.71.625-3.21-2.437-5.367-7.15-5.367-11.726 0-8.073 6.92-10.95 13.397-10.95 6.476 0 13.397 2.877 13.397 10.95 0 4.577-2.157 9.29-5.367 11.726M24.342 10.5c9.301 0 15.31 5.042 15.31 12.846 0 5.136-2.457 10.454-6.116 13.232-1.861 1.413-3.902.438-5.703-.422-1.158-.553-2.355-1.125-3.491-1.125-1.135 0-2.332.572-3.49 1.125-1.141.545-2.38 1.136-3.607 1.137-.71 0-1.415-.197-2.096-.715-3.66-2.777-6.117-8.095-6.117-13.232 0-7.804 6.01-12.846 15.31-12.846zm-4.784 11.53H18.6v-.948a.953.953 0 0 0-.957-.948.953.953 0 0 0-.957.948v.949h-.957a.953.953 0 0 0-.957.948c0 .524.43.948.957.948h.957v.949c0 .523.429.948.957.948a.953.953 0 0 0 .957-.948v-.949h.957a.953.953 0 0 0 .957-.948.953.953 0 0 0-.957-.948zm9.846 3.12a.993.993 0 0 0-.277.674c0 .247.105.493.277.674.182.17.431.275.68.275.249 0 .497-.105.68-.275a.993.993 0 0 0 .277-.674.993.993 0 0 0-.278-.673c-.354-.351-1.005-.351-1.359 0zm-2.87-2.844a.993.993 0 0 0-.278.673c0 .256.105.493.278.673.182.171.43.275.68.275a.993.993 0 0 0 .679-.275.975.975 0 0 0 .277-.673.993.993 0 0 0-.277-.673c-.355-.351-1.005-.351-1.36 0zm5.741 0a.993.993 0 0 0-.277.673c0 .256.105.493.277.673.182.171.43.275.68.275.248 0 .497-.104.679-.275a.975.975 0 0 0 .277-.673.993.993 0 0 0-.277-.673c-.354-.351-1.005-.351-1.359 0zm-2.87-2.845a.993.993 0 0 0-.278.673c0 .246.105.493.277.673.182.171.431.275.68.275.249 0 .497-.104.68-.275a.993.993 0 0 0 .277-.673.993.993 0 0 0-.278-.673c-.354-.351-.995-.351-1.359 0z"/></g></svg>