<svg xmlns="http://www.w3.org/2000/svg" width="48" height="48"><g fill="none" fill-rule="evenodd"><path fill="#13C1AC" fill-opacity=".5" d="M37.275 23.205c-.133-3.784-1.85-7.306-4.837-9.673-3.07-2.434-7.052-3.394-10.928-2.652-8.474 1.626-11.598 10.065-10.934 17.69.19 2.175 1.47 5.904 3.613 6.928 1.778.849 4.73 1.93 8.689 1.93 7.11 0 9.608-2.043 9.868-2.043h.002c3.01-2.858 4.665-8.284 4.527-12.18"/><path fill="#FFF" fill-opacity=".4" d="M15.093 17.024l7.865 1.759c1.253.28 2.381.976 2.986 1.911.49.758.812 1.634.812 2.535v5.798c0 .48-.385.899-.846 1.02-2.522.665-7.592 1.53-13.088-.075-.156-.555-.28-1.106-.323-1.6-.33-3.791.312-8.151 2.594-11.348"/><path fill="#FFF" fill-opacity=".6" d="M15.093 17.024l7.865 1.759c1.253.28 2.381.976 2.986 1.911.49.758.812 1.634.812 2.535v5.798c0 .48-.385.899-.846 1.02-2.522.665-7.592 1.53-13.088-.075-.156-.555-.28-1.106-.323-1.6-.33-3.791.312-8.151 2.594-11.348"/><path fill="#13C1AC" d="M31.51 33.657c-.098.074-2.34 1.728-8.632 1.728-3.6 0-6.262-.91-7.861-1.674-.475-.226-.942-.813-1.347-1.553 1.99.451 3.904.632 5.648.632 2.963 0 5.508-.487 7.08-.901 1.301-.342 2.273-1.518 2.273-2.862V23.23c0-1.268-.428-2.501-1.118-3.566-.887-1.372-2.38-2.345-4.143-2.739l-6.868-1.532c1.373-1.276 3.114-2.232 5.338-2.658a11.64 11.64 0 0 1 2.202-.21c2.59 0 5.115.863 7.166 2.49 2.54 2.014 4.002 4.896 4.115 8.116.137 3.86-1.592 8.58-3.854 10.527M15.093 17.024l7.865 1.759c1.253.28 2.381.976 2.986 1.911.49.758.812 1.634.812 2.535v5.798c0 .48-.385.899-.846 1.02-2.522.665-7.592 1.53-13.088-.075-.156-.555-.28-1.106-.323-1.6-.33-3.791.312-8.151 2.594-11.348m22.182 6.181c.138 3.896-1.518 9.322-4.527 12.18h-.002c-.26 0-2.758 2.043-9.868 2.043-3.96 0-6.911-1.081-8.69-1.93-2.143-1.024-3.422-4.753-3.612-6.928-.664-7.625 2.46-16.064 10.934-17.69 3.876-.742 7.858.218 10.928 2.652 2.986 2.367 4.704 5.889 4.837 9.673zm-13.39 5.512a.955.955 0 0 0 .958-.952v-5.716a.955.955 0 0 0-.957-.952.955.955 0 0 0-.957.952v5.716c0 .526.428.952.957.952zm6.7-4.762a.955.955 0 0 0-.957.952v.953c0 .526.428.952.957.952a.955.955 0 0 0 .957-.952v-.953a.955.955 0 0 0-.957-.952z"/></g></svg>