<svg xmlns="http://www.w3.org/2000/svg" width="48" height="48"><g fill="none" fill-rule="evenodd"><path fill="#13C1AC" fill-opacity=".35" d="M34.383 35.39c0 .55-.447.997-.997.997H14.328a.998.998 0 0 1-.997-.997V11.547c0-.55.447-.996.997-.996h19.058c.55 0 .997.447.997.996V35.39zm-10.526-2.831a6.706 6.706 0 0 0 6.698-6.698 6.706 6.706 0 0 0-6.698-6.699 6.706 6.706 0 0 0-6.699 6.699 6.706 6.706 0 0 0 6.699 6.698z"/><path fill="#FFF" fill-opacity=".5" d="M23.857 32.559a6.706 6.706 0 0 1-6.699-6.698 6.706 6.706 0 0 1 6.699-6.699 6.706 6.706 0 0 1 6.698 6.699 6.706 6.706 0 0 1-6.698 6.698"/><path fill="#FFF" fill-opacity=".5" d="M23.857 32.56a6.706 6.706 0 0 1-6.698-6.7 6.706 6.706 0 0 1 6.698-6.698 6.706 6.706 0 0 1 6.698 6.699 6.706 6.706 0 0 1-6.698 6.698"/><path fill="#13C1AC" d="M34.383 35.39c0 .55-.447.997-.997.997H14.328a.998.998 0 0 1-.997-.997V11.547c0-.55.447-.996.997-.996h19.058c.55 0 .997.447.997.996V35.39zm-.997-26.753a2.913 2.913 0 0 1 2.91 2.91V35.39a2.911 2.911 0 0 1-2.87 2.906v.005a.957.957 0 0 1-.957.957h-1.914a.957.957 0 0 1-.957-.957H18.116a.957.957 0 0 1-.957.957h-1.914a.957.957 0 0 1-.957-.957v-.005c-1.914-.02-2.87-1.315-2.87-2.906V11.547a2.913 2.913 0 0 1 2.91-2.91h19.058zm-2.553 4.105c-.172.181-.278.43-.278.679 0 .249.106.498.278.68.182.172.43.277.68.277.248 0 .497-.105.679-.278.172-.181.277-.43.277-.679 0-.249-.105-.498-.277-.68a1.002 1.002 0 0 0-1.36 0zm-2.191 1.636c.248 0 .497-.105.679-.278.172-.181.277-.43.277-.679 0-.249-.105-.498-.277-.68-.354-.353-1.005-.353-1.359 0a1.008 1.008 0 0 0-.277.68c0 .249.105.498.277.68.182.172.43.277.68.277zm-2.871 0c.249 0 .497-.105.68-.278.172-.181.277-.43.277-.679 0-.249-.105-.498-.278-.68-.363-.353-1.004-.353-1.359 0a1.008 1.008 0 0 0-.277.68c0 .249.105.498.277.68.182.172.431.277.68.277zm-9.57 0h4.785a.957.957 0 0 0 0-1.914h-4.784a.957.957 0 0 0 0 1.914zm7.656 2.87c-4.748 0-8.612 3.865-8.612 8.613 0 4.748 3.864 8.612 8.612 8.612s8.612-3.864 8.612-8.612-3.864-8.612-8.612-8.612z"/><path fill="#13C1AC" d="M23.857 32.56a6.706 6.706 0 0 1-6.698-6.7 6.706 6.706 0 0 1 6.698-6.698 6.706 6.706 0 0 1 6.698 6.699 6.706 6.706 0 0 1-6.698 6.698"/><path fill="#FFF" fill-opacity=".8" d="M23.857 32.56a6.706 6.706 0 0 1-6.698-6.7 6.706 6.706 0 0 1 6.698-6.698 6.706 6.706 0 0 1 6.698 6.699 6.706 6.706 0 0 1-6.698 6.698"/><path fill="#13C1AC" d="M23.857 21.076a4.79 4.79 0 0 0-4.784 4.785.957.957 0 0 0 1.913 0 2.874 2.874 0 0 1 2.871-2.87.957.957 0 0 0 0-1.915"/></g></svg>