<svg xmlns="http://www.w3.org/2000/svg" width="48" height="48"><g fill="none" fill-rule="evenodd"><path fill="#13C1AC" fill-opacity=".47" d="M35 30v-6a1 1 0 0 0-1-1h-2v-6a1 1 0 0 0-1-1h-8.5l.9-1.2a1 1 0 0 0-.2-1.4l-5.6-4.2a.996.996 0 0 0-1.4.2l-6 8a1 1 0 0 0 .2 1.4c3.198 1.542 5.35 2.548 6.458 3.018.531.226 3.01-4.65 3.851-4.418.786.216-.048 5.544 0 5.6.262.305-1.975.305-6.709 0a1 1 0 0 0-1 1v6H9a1 1 0 0 0-1 1v7a1 1 0 0 0 1 1h30a1 1 0 0 0 1-1v-7a1 1 0 0 0-1-1h-4z"/><path fill="#13C1AC" d="M38 37h-8v-5h8v5zm-18-5h8v5h-8v-5zm-10 0h8v5h-8v-5zm5-7h8v5h-8v-5zm2.4-2.2l2.6-3.467V23h-2.823c.081-.059.162-.118.223-.2zm-5-5l4.8-6.4 4 3-4.8 6.4-4-3zM30 23h-8v-5h8v5zm3 7h-8v-5h8v5zm2 0v-6a1 1 0 0 0-1-1h-2v-6a1 1 0 0 0-1-1h-8.5l.9-1.2a1 1 0 0 0-.2-1.4l-5.6-4.2a.996.996 0 0 0-1.4.2l-6 8a1 1 0 0 0 .2 1.4L16 23h-2a1 1 0 0 0-1 1v6H9a1 1 0 0 0-1 1v7a1 1 0 0 0 1 1h30a1 1 0 0 0 1-1v-7a1 1 0 0 0-1-1h-4z"/><path fill="#FFF" opacity=".739" d="M30 23h-8v-5h8zM17.994 36.98h-8v-5h8zm20.006 0h-8v-5h8z"/></g></svg>