<svg xmlns="http://www.w3.org/2000/svg" width="48" height="48"><g fill="none" fill-rule="evenodd"><path fill="#E7EBED" d="M24 23.034c3.303 0 6.093 1.77 6.093 3.863s-2.79 3.862-6.093 3.862-6.094-1.77-6.094-3.862c0-2.093 2.791-3.863 6.094-3.863z" opacity=".822"/><path fill="#CFD8DC" d="M13.195 34.345l3.326-6.08c.832 2.41 3.815 4.15 7.479 4.15 3.644 0 6.615-1.722 7.466-4.112l3.333 6.042H13.195zm10.802-19.577l4.103 7.436c-1.182-.521-2.58-.825-4.1-.825-1.543 0-2.963.313-4.156.85l4.153-7.46z"/><path fill="#CFD8DC" d="M24 25.241c.896 0 1.625.743 1.625 1.656 0 .912-.729 1.655-1.625 1.655s-1.625-.743-1.625-1.655c0-.913.729-1.656 1.625-1.656"/><path fill="#000" d="M13.195 34.345l3.326-6.08c.832 2.41 3.815 4.15 7.479 4.15 3.644 0 6.615-1.722 7.466-4.112l3.333 6.042H13.195zm10.802-19.577l4.103 7.436c-1.182-.521-2.58-.825-4.1-.825-1.543 0-2.963.313-4.156.85l4.153-7.46zM24 23.034c3.303 0 6.093 1.77 6.093 3.863s-2.79 3.862-6.093 3.862-6.094-1.77-6.094-3.862c0-2.093 2.791-3.863 6.094-3.863zm.708-10.483l12.188 22.152a.903.903 0 0 1-.007.855c-.146.254-.413.442-.702.442H11.812a.81.81 0 0 1-.7-.408.84.84 0 0 1-.009-.823l6.094-11.141 6.096-11.08c.145-.26.414-.548.708-.548s.563.29.707.551zM24 25.241c.896 0 1.625.743 1.625 1.656 0 .912-.729 1.655-1.625 1.655s-1.625-.743-1.625-1.655c0-.913.729-1.656 1.625-1.656zm0 4.966c1.792 0 3.25-1.485 3.25-3.31 0-1.826-1.458-3.31-3.25-3.31s-3.25 1.484-3.25 3.31c0 1.825 1.458 3.31 3.25 3.31zm7.312-13.241a.803.803 0 0 1-.574-.243.838.838 0 0 1 0-1.17l2.438-2.483a.801.801 0 0 1 1.148 0 .838.838 0 0 1 0 1.17l-2.437 2.483a.803.803 0 0 1-.575.243zm.821 4.137c0-.452.36-.827.805-.827h3.25c.444 0 .803.375.803.827 0 .453-.359.828-.803.828h-3.25a.819.819 0 0 1-.805-.828zm-16.02-4.38l-2.437-2.483a.838.838 0 0 1 0-1.17.801.801 0 0 1 1.149 0l2.437 2.483a.838.838 0 0 1 0 1.17.803.803 0 0 1-1.149 0zm-4.3 5.208a.82.82 0 0 1-.813-.828.82.82 0 0 1 .813-.827h3.25a.82.82 0 0 1 .812.827.82.82 0 0 1-.812.828h-3.25z"/></g></svg>