<svg xmlns="http://www.w3.org/2000/svg" width="48" height="48"><g fill="none" fill-rule="evenodd"><path fill="#13C1AC" fill-opacity=".5" d="M37.48 14.812l-7.614-3.756h-.001a2.05 2.05 0 0 0-1.712-.049c-.57.243-1 .723-1.182 1.319-.483 1.58-1.99 2.684-3.666 2.684-1.675 0-3.182-1.103-3.666-2.684a2.092 2.092 0 0 0-1.181-1.319 2.047 2.047 0 0 0-1.712.049L9.13 14.81a2.01 2.01 0 0 0-1.136 1.811v7.452c0 .609.274 1.18.751 1.566a2.07 2.07 0 0 0 1.705.42l2.162-.427a.143.143 0 0 1 .116.03.13.13 0 0 1 .05.105v11.757c0 1.117.922 2.025 2.054 2.025h16.945c1.132 0 2.053-.908 2.053-2.025V25.768a.13.13 0 0 1 .05-.106.138.138 0 0 1 .117-.029l2.162.427a2.07 2.07 0 0 0 1.705-.42c.477-.386.75-.957.75-1.566v-7.45c0-.773-.435-1.467-1.134-1.812z"/><path fill="#13C1AC" d="M36.702 24.074a.132.132 0 0 1-.05.106.14.14 0 0 1-.117.029l-2.162-.427a2.05 2.05 0 0 0-.542-.028v-2.137a.95.95 0 0 0-.957-.944.95.95 0 0 0-.957.944v11.326H14.693V21.618a.95.95 0 0 0-.957-.945.95.95 0 0 0-.957.944v2.137c-.046-.003-.09-.011-.136-.011a2.07 2.07 0 0 0-.406.04l-2.16.426a.138.138 0 0 1-.117-.028.133.133 0 0 1-.051-.107v-7.452c0-.052.03-.099.077-.122l7.615-3.756a.107.107 0 0 1 .098-.004c.024.01.082.044.108.13.724 2.372 2.985 4.028 5.498 4.028 2.513 0 4.774-1.656 5.499-4.027a.195.195 0 0 1 .108-.13.106.106 0 0 1 .098.003l7.615 3.757c.047.022.077.07.077.122v7.45zm-4.924 13.588H14.833a.138.138 0 0 1-.14-.137V34.83h17.224v2.694a.138.138 0 0 1-.14.137zm5.703-22.85l-7.615-3.756h-.001a2.05 2.05 0 0 0-1.712-.049c-.57.243-1 .723-1.182 1.319-.483 1.58-1.99 2.684-3.666 2.684-1.675 0-3.182-1.103-3.666-2.684a2.092 2.092 0 0 0-1.181-1.319 2.047 2.047 0 0 0-1.712.049L9.13 14.81a2.01 2.01 0 0 0-1.136 1.811v7.452c0 .609.274 1.18.751 1.566a2.07 2.07 0 0 0 1.705.42l2.162-.427a.143.143 0 0 1 .116.03.13.13 0 0 1 .05.105v11.757c0 1.117.922 2.025 2.054 2.025h16.945c1.132 0 2.053-.908 2.053-2.025V25.768a.13.13 0 0 1 .05-.106.138.138 0 0 1 .117-.029l2.162.427a2.07 2.07 0 0 0 1.705-.42c.477-.386.75-.957.75-1.566v-7.45c0-.773-.435-1.467-1.134-1.812z"/><path fill="#FFF" fill-opacity=".7" d="M36.702 24.074a.132.132 0 0 1-.05.106.14.14 0 0 1-.117.029l-2.162-.427a2.05 2.05 0 0 0-.542-.028v-2.137a.95.95 0 0 0-.957-.944.95.95 0 0 0-.957.944v11.326H14.693V21.618a.95.95 0 0 0-.957-.945.95.95 0 0 0-.957.944v2.137c-.046-.003-.09-.011-.136-.011a2.07 2.07 0 0 0-.406.04l-2.16.426a.138.138 0 0 1-.117-.028.133.133 0 0 1-.051-.107v-7.452c0-.052.03-.099.077-.122l7.615-3.756a.107.107 0 0 1 .098-.004c.024.01.082.044.108.13.724 2.372 2.985 4.028 5.498 4.028 2.513 0 4.774-1.656 5.499-4.027a.195.195 0 0 1 .108-.13.106.106 0 0 1 .098.003l7.615 3.757c.047.022.077.07.077.122v7.45z"/></g></svg>