<svg xmlns="http://www.w3.org/2000/svg" width="48" height="48"><g fill="none" fill-rule="evenodd"><path fill="#CFD8DC" d="M37.481 14.812l-7.615-3.756a2.05 2.05 0 0 0-1.713-.048c-.57.242-1 .723-1.182 1.318-.483 1.581-1.99 2.685-3.665 2.685-1.676 0-3.183-1.104-3.666-2.685a2.092 2.092 0 0 0-1.182-1.318 2.047 2.047 0 0 0-1.712.048L9.131 14.81a2.01 2.01 0 0 0-1.136 1.812v7.451c0 .61.274 1.18.751 1.566a2.07 2.07 0 0 0 1.705.42l2.162-.426a.143.143 0 0 1 .116.029.13.13 0 0 1 .05.106v11.756c0 1.118.922 2.026 2.054 2.026h16.945c1.132 0 2.053-.908 2.053-2.026V25.769a.13.13 0 0 1 .051-.106.138.138 0 0 1 .116-.03l2.163.427a2.07 2.07 0 0 0 1.704-.42c.477-.386.751-.957.751-1.566v-7.45c0-.772-.435-1.467-1.135-1.812z"/><path fill="#253238" d="M36.702 24.074a.132.132 0 0 1-.05.106.14.14 0 0 1-.116.03l-2.163-.427a2.05 2.05 0 0 0-.542-.029v-2.136a.95.95 0 0 0-.956-.944.95.95 0 0 0-.957.944v11.326H14.693V21.618a.95.95 0 0 0-.956-.944.95.95 0 0 0-.957.944v2.136c-.046-.002-.091-.01-.137-.01-.135 0-.271.012-.406.039l-2.16.426a.138.138 0 0 1-.116-.028.133.133 0 0 1-.052-.107v-7.451c0-.052.03-.1.077-.123l7.615-3.756a.107.107 0 0 1 .098-.003c.024.01.082.043.108.13.725 2.372 2.986 4.027 5.499 4.027 2.512 0 4.774-1.655 5.498-4.027a.195.195 0 0 1 .108-.13.106.106 0 0 1 .099.003l7.615 3.757c.047.023.076.07.076.123v7.45zm-4.924 13.589H14.833a.138.138 0 0 1-.14-.138v-2.694h17.225v2.694a.138.138 0 0 1-.14.138zm5.703-22.85l-7.615-3.757a2.05 2.05 0 0 0-1.713-.048c-.57.242-1 .723-1.182 1.318-.483 1.581-1.99 2.685-3.665 2.685-1.676 0-3.183-1.104-3.666-2.685a2.092 2.092 0 0 0-1.182-1.318 2.047 2.047 0 0 0-1.712.048L9.131 14.81a2.01 2.01 0 0 0-1.136 1.812v7.451c0 .61.274 1.18.751 1.566a2.07 2.07 0 0 0 1.705.42l2.162-.426a.143.143 0 0 1 .116.029.13.13 0 0 1 .05.106v11.756c0 1.118.922 2.026 2.054 2.026h16.945c1.132 0 2.053-.908 2.053-2.026V25.769a.13.13 0 0 1 .051-.106.138.138 0 0 1 .116-.03l2.163.427a2.07 2.07 0 0 0 1.704-.42c.477-.386.751-.957.751-1.566v-7.45c0-.772-.435-1.467-1.135-1.812z"/><path fill="#FFF" fill-opacity=".5" d="M36.702 24.074a.132.132 0 0 1-.05.106.14.14 0 0 1-.116.03l-2.163-.427a2.05 2.05 0 0 0-.542-.029v-2.136a.95.95 0 0 0-.956-.944.95.95 0 0 0-.957.944v11.326H14.693V21.618a.95.95 0 0 0-.956-.944.95.95 0 0 0-.957.944v2.136c-.046-.002-.091-.01-.137-.01-.135 0-.271.012-.406.039l-2.16.426a.138.138 0 0 1-.116-.028.133.133 0 0 1-.052-.107v-7.451c0-.052.03-.1.077-.123l7.615-3.756a.107.107 0 0 1 .098-.003c.024.01.082.043.108.13.725 2.372 2.986 4.027 5.499 4.027 2.512 0 4.774-1.655 5.498-4.027a.195.195 0 0 1 .108-.13.106.106 0 0 1 .099.003l7.615 3.757c.047.023.076.07.076.123v7.45z"/></g></svg>