<svg xmlns="http://www.w3.org/2000/svg" width="48" height="48"><g fill="none" fill-rule="evenodd"><path fill="#CFD8DC" d="M37.275 23.206c-.133-3.785-1.85-7.307-4.836-9.674-3.07-2.434-7.053-3.394-10.929-2.652-8.474 1.626-11.598 10.065-10.934 17.69.19 2.175 1.47 5.904 3.613 6.928 1.778.85 4.73 1.93 8.689 1.93 7.11 0 9.608-2.043 9.869-2.043h.002c3.008-2.858 4.664-8.283 4.526-12.18"/><path fill="#FFF" fill-opacity=".4" d="M15.093 17.024l7.865 1.759c1.253.28 2.381.976 2.986 1.912.49.757.813 1.633.813 2.534v5.799c0 .479-.386.898-.847 1.019-2.522.665-7.591 1.53-13.088-.074-.156-.556-.28-1.106-.323-1.602-.33-3.79.312-8.15 2.594-11.347"/><path fill="#FFF" fill-opacity=".5" d="M15.093 17.024l7.865 1.759c1.253.28 2.381.976 2.986 1.912.49.757.813 1.633.813 2.534v5.799c0 .479-.386.898-.847 1.019-2.522.665-7.591 1.53-13.088-.074-.156-.556-.28-1.106-.323-1.602-.33-3.79.312-8.15 2.594-11.347"/><path fill="#253238" d="M31.51 33.657c-.097.074-2.34 1.728-8.632 1.728-3.6 0-6.262-.91-7.861-1.674-.475-.226-.942-.813-1.347-1.553a25.63 25.63 0 0 0 5.648.632c2.964 0 5.508-.486 7.08-.9 1.301-.343 2.273-1.52 2.273-2.862v-5.799c0-1.268-.428-2.501-1.118-3.566-.887-1.372-2.38-2.344-4.143-2.739l-6.868-1.531c1.373-1.277 3.115-2.232 5.339-2.66a11.64 11.64 0 0 1 2.2-.21c2.59 0 5.116.864 7.167 2.49 2.54 2.015 4.002 4.898 4.115 8.117.137 3.861-1.591 8.58-3.854 10.527M15.093 17.024l7.865 1.759c1.253.28 2.381.976 2.986 1.912.49.757.813 1.633.813 2.534v5.799c0 .479-.386.898-.847 1.019-2.522.665-7.591 1.53-13.088-.074-.156-.556-.28-1.106-.323-1.602-.33-3.79.312-8.15 2.594-11.347m22.182 6.182c.138 3.896-1.518 9.321-4.526 12.18h-.002c-.26 0-2.758 2.042-9.87 2.042-3.958 0-6.91-1.08-8.688-1.93-2.144-1.024-3.423-4.753-3.613-6.928-.664-7.625 2.46-16.064 10.934-17.69 3.876-.742 7.858.218 10.929 2.652 2.985 2.367 4.703 5.889 4.836 9.674zm-13.39 5.512a.955.955 0 0 0 .958-.953V22.05a.955.955 0 0 0-.957-.953.955.955 0 0 0-.957.953v5.715c0 .526.429.953.957.953zm6.7-4.763a.955.955 0 0 0-.957.952v.953c0 .526.429.952.957.952a.955.955 0 0 0 .957-.952v-.953a.955.955 0 0 0-.957-.952z"/></g></svg>