<svg xmlns="http://www.w3.org/2000/svg" width="48" height="48"><g fill="#13C1AC" fill-rule="evenodd"><path fill-opacity=".35" d="M33.858 12.215a3.831 3.831 0 0 0-3.828-3.827H16.633a3.831 3.831 0 0 0-3.827 3.827v22.966a3.831 3.831 0 0 0 3.827 3.828H30.03a3.831 3.831 0 0 0 3.828-3.828V21.784a.957.957 0 0 0 .957-.957v-.956a.957.957 0 0 0-.957-.957V17a.957.957 0 0 0 .957-.957v-.957a.957.957 0 0 0-.957-.957v-1.914z"/><path d="M31.952 35.155a1.917 1.917 0 0 1-1.915 1.914H16.635a1.917 1.917 0 0 1-1.915-1.914V12.18c0-1.056.86-1.915 1.915-1.915h13.402c1.056 0 1.915.859 1.915 1.915v22.975zm2.872-19.146c0 .53-.428.957-.958.957v1.915c.53 0 .958.428.958.957v.957c0 .53-.428.958-.958.958v13.402a3.833 3.833 0 0 1-3.829 3.829H16.635a3.833 3.833 0 0 1-3.83-3.83V12.18a3.833 3.833 0 0 1 3.83-3.83h13.402a3.833 3.833 0 0 1 3.83 3.83v1.914c.529 0 .957.428.957.958v.957zm-11.488 14.36a1.917 1.917 0 0 0-1.915 1.914c0 1.056.86 1.914 1.915 1.914a1.917 1.917 0 0 0 1.915-1.914 1.917 1.917 0 0 0-1.915-1.915zm1.915-18.19h-3.83a.956.956 0 1 0 0 1.915h3.83a.956.956 0 1 0 0-1.914z"/></g></svg>