<svg xmlns="http://www.w3.org/2000/svg" width="48" height="48"><g fill="none" fill-rule="evenodd"><path fill="#13C1AC" fill-opacity=".5" d="M32.258 25.47l-.994-.994c1.245-1.197 2.906-2.007 4.792-2.007a.946.946 0 0 0 .01-1.893l-9.65-.095c-.68-1.086-1.661-1.87-2.808-2.234-.988-.313-2.066-.303-3.12.013l-.435-1.305 1.285-.643a.946.946 0 1 0-.847-1.693l-.356.179.199-1.196a.94.94 0 0 0-.212-.767.941.941 0 0 0-.721-.335c-4.14 0-7.509 3.368-7.509 7.509v1.513c0 .523.423.947.947.947 1.127 0 2.169.294 3.096.78l-1.17 1.754a4.951 4.951 0 0 0-1.926-.389 4.989 4.989 0 0 0-4.984 4.984 4.99 4.99 0 0 0 4.984 4.984 4.99 4.99 0 0 0 4.984-4.984c0-1.385-.57-2.639-1.486-3.543l1.15-1.721c1.536 1.401 2.48 3.394 2.48 5.264 0 .523.425.946.947.946h7.067a.946.946 0 0 0 .946-.946c0-1.232.413-2.517 1.131-3.651l.861.862a4.95 4.95 0 0 0-.856 2.789 4.99 4.99 0 0 0 4.985 4.984 4.99 4.99 0 0 0 4.984-4.984 4.99 4.99 0 0 0-4.984-4.984 4.953 4.953 0 0 0-2.79.856z"/><path fill="#13C1AC" d="M35.048 32.69a3.096 3.096 0 0 1-3.092-3.092c0-.507.135-.979.352-1.401l2.07 2.07a.94.94 0 0 0 .67.277.945.945 0 0 0 .67-1.615l-2.071-2.07a3.03 3.03 0 0 1 1.4-.352 3.096 3.096 0 0 1 3.092 3.09 3.096 3.096 0 0 1-3.091 3.093m-7.959-4.039h-5.282c-.47-4.087-3.934-7.55-8.022-8.02v-.622a5.625 5.625 0 0 1 4.48-5.5l-.303 1.81c-.002.018.001.034 0 .051-.004.028-.002.055-.003.084a.947.947 0 0 0 .034.274c.003.015 0 .03.005.047l1.01 3.028c.009.025.026.045.036.069.008.019.006.037.014.055.01.021.03.034.042.053.042.071.09.133.149.189.024.024.045.05.073.073.08.062.169.113.263.147.009.004.017.01.025.013a.942.942 0 0 0 .295.048c.012 0 .023-.005.034-.005.034 0 .066-.011.1-.017.055-.007.11-.008.165-.026.023-.008.037-.025.058-.034.022-.008.046-.007.066-.018.928-.463 1.863-.567 2.707-.299.841.267 1.527.887 1.979 1.794.159.318.483.52.837.523l4.889.048c-1.97 1.492-3.364 3.747-3.65 6.235m-11.16.947a3.096 3.096 0 0 1-3.091 3.092 3.095 3.095 0 0 1-3.091-3.092 3.095 3.095 0 0 1 3.09-3.091c.293 0 .57.053.838.13l-1.625 2.436a.945.945 0 1 0 1.575 1.05l1.624-2.435c.42.527.68 1.186.68 1.91m19.118-4.984a4.953 4.953 0 0 0-2.79.856l-.994-.994c1.245-1.197 2.906-2.007 4.792-2.007a.946.946 0 0 0 .01-1.893l-9.65-.095c-.68-1.086-1.661-1.87-2.808-2.234-.988-.313-2.066-.303-3.12.013l-.435-1.305 1.285-.643a.946.946 0 1 0-.847-1.693l-.356.179.199-1.196a.94.94 0 0 0-.212-.767.941.941 0 0 0-.721-.335c-4.14 0-7.509 3.368-7.509 7.509v1.513c0 .523.423.947.947.947 1.127 0 2.169.294 3.096.78l-1.17 1.754a4.951 4.951 0 0 0-1.926-.389 4.989 4.989 0 0 0-4.984 4.984 4.99 4.99 0 0 0 4.984 4.984 4.99 4.99 0 0 0 4.984-4.984c0-1.385-.57-2.639-1.486-3.543l1.15-1.721c1.536 1.401 2.48 3.394 2.48 5.264 0 .523.425.946.947.946h7.067a.946.946 0 0 0 .946-.946c0-1.232.413-2.517 1.131-3.651l.861.862a4.95 4.95 0 0 0-.856 2.789 4.99 4.99 0 0 0 4.985 4.984 4.99 4.99 0 0 0 4.984-4.984 4.99 4.99 0 0 0-4.984-4.984"/><path fill="#FFF" d="M27.09 28.651h-5.283c-.47-4.087-3.934-7.55-8.022-8.02v-.622a5.625 5.625 0 0 1 4.48-5.5l-.303 1.81c-.002.018.001.034 0 .051-.004.028-.002.055-.003.084a.947.947 0 0 0 .034.274c.003.015 0 .03.005.047l1.01 3.028c.009.025.026.045.036.069.008.019.006.037.014.055.01.021.03.034.042.053.042.071.09.133.149.189.024.024.045.05.073.073.08.062.169.113.263.147.009.004.017.01.025.013a.942.942 0 0 0 .295.048c.012 0 .023-.005.034-.005.034 0 .066-.011.1-.017.055-.007.11-.008.165-.026.023-.008.037-.025.058-.034.022-.008.046-.007.066-.018.928-.463 1.863-.567 2.707-.299.841.267 1.527.887 1.979 1.794.159.318.483.52.837.523l4.889.048c-1.97 1.492-3.364 3.747-3.65 6.235" opacity=".47"/></g></svg>