<svg xmlns="http://www.w3.org/2000/svg" width="48" height="48"><g fill="none" fill-rule="evenodd"><path fill="#13C1AC" d="M37.89 19.204l1.482-1.484a.956.956 0 1 0-1.353-1.353l-1.768 1.769-1.818-4.457c-.686-2.056-2.64-3.333-5.099-3.333h-9.983c-2.46 0-4.414 1.277-5.074 3.265l-1.886 4.482-1.726-1.726a.956.956 0 1 0-1.353 1.353l1.483 1.484a2.932 2.932 0 0 0-1.763 2.685v8.735c0 .181.018.358.048.53-.02.08-.048.157-.048.243v3.838a2.865 2.865 0 0 0 2.86 2.86h1.915c1.588 0 2.88-1.282 2.88-2.86v-.967c0-.072-.026-.135-.04-.202 2.044.119 4.58.202 7.695.202 3.117 0 5.651-.083 7.696-.202-.015.067-.04.13-.04.202v.967a2.865 2.865 0 0 0 2.86 2.86h1.914c1.588 0 2.88-1.282 2.88-2.86v-3.838c0-.086-.028-.163-.049-.243.032-.172.05-.349.05-.53V21.89a2.932 2.932 0 0 0-1.763-2.685z" opacity=".35"/><path fill="#13C1AC" d="M36.772 36.182h-1.914a.948.948 0 0 1-.947-.947v-.967a.943.943 0 0 0-.065-.325c1.34-.107 2.4-.227 3.216-.338a2.96 2.96 0 0 0 .676-.187v1.817c0 .513-.442.947-.966.947zm-24.89-4.474a1.093 1.093 0 0 1-.937-1.084V27.86c2.372.317 6.59.688 13.397.688 6.806 0 11.025-.37 13.396-.688v2.764c0 .546-.402 1.012-.935 1.084-2.15.295-6.057.646-12.461.646-6.405 0-10.31-.35-12.46-.646zm2.891 2.56v.967c0 .513-.442.947-.966.947h-1.914a.948.948 0 0 1-.948-.947v-1.817c.217.085.44.154.677.187.815.111 1.877.23 3.217.338a.943.943 0 0 0-.066.325zm1.294-19.983c.61-1.828 2.5-2.026 3.284-2.026h9.983c.784 0 2.674.198 3.305 2.085l1.798 4.412c-.32-.106-.738-.277-1.243-.482-2.007-.819-5.369-2.187-8.852-2.187-3.482 0-6.844 1.368-8.852 2.187-.523.212-.956.39-1.28.495-.01.004-.02.005-.03.008l1.887-4.492zM33.98 24.41c1.4-.103 2.66-.23 3.757-.378v1.924c-.044 0-.085-.015-.129-.01-1.411.195-3.537.411-6.557.548.115-1.85 2.808-2.075 2.929-2.084zm-14.426 2.156c-.034-2.963-3.094-3.956-4.711-4.064a61.899 61.899 0 0 1-3.768-.383c-.045-.005-.087.008-.13.008v-.237c0-.561.456-1.018 1.017-1.018h1.04c.616 0 1.22-.094 1.798-.28.357-.118.836-.31 1.411-.545 2-.815 5.022-2.045 8.13-2.045 3.108 0 6.13 1.23 8.13 2.045.576.234 1.055.427 1.412.544a5.81 5.81 0 0 0 1.796.281h1.042c.561 0 1.016.457 1.016 1.018v.237c-.044 0-.085-.014-.129-.008-1.087.15-2.354.278-3.762.382-1.624.11-4.683 1.102-4.718 4.065a158.77 158.77 0 0 1-4.787.069c-1.772 0-3.36-.026-4.787-.069zm-8.61-2.534c1.097.148 2.358.275 3.765.378.028.003 2.804.216 2.923 2.084-3.02-.137-5.146-.353-6.557-.547-.045-.006-.087.009-.13.009V24.03zm28.427-6.31l-1.482 1.483a2.932 2.932 0 0 1 1.762 2.685v8.735c0 .181-.017.358-.049.53.021.08.05.157.05.243v3.838c0 1.578-1.293 2.86-2.881 2.86h-1.914a2.865 2.865 0 0 1-2.86-2.86v-.967c0-.072.025-.135.04-.202-2.045.119-4.58.202-7.696.202-3.116 0-5.651-.083-7.695-.202.014.067.04.13.04.202v.967c0 1.578-1.292 2.86-2.88 2.86h-1.914a2.865 2.865 0 0 1-2.861-2.86v-3.838c0-.086.027-.163.048-.243a3.026 3.026 0 0 1-.048-.53V21.89a2.93 2.93 0 0 1 1.763-2.685L9.312 17.72a.958.958 0 0 1 1.353-1.353l1.726 1.726 1.886-4.482c.66-1.988 2.614-3.265 5.074-3.265h9.983c2.46 0 4.413 1.277 5.1 3.333l1.817 4.457 1.768-1.769a.956.956 0 1 1 1.353 1.353zm-12.16 11.763h-.01c-.61 0-2.2.01-2.86.01-.66 0-2.25-.01-2.86-.01h-.01a.962.962 0 0 0-.011 1.924 385.816 385.816 0 0 0 5.762-.003.958.958 0 0 0 .947-.97.962.962 0 0 0-.957-.951zm-.956-4.785a.957.957 0 0 0-.957-.957h-1.914a.957.957 0 0 0 0 1.914H25.3a.957.957 0 0 0 .957-.957z"/><path fill="#FFF" fill-opacity=".7" d="M10.945 24.031c1.097.148 2.358.275 3.765.378.028.003 2.804.216 2.923 2.084-3.02-.137-5.146-.353-6.557-.547-.045-.006-.087.009-.13.009V24.03zm23.036.378c1.4-.103 2.66-.23 3.757-.378v1.924c-.044 0-.085-.015-.129-.01-1.411.195-3.537.411-6.557.548.115-1.85 2.808-2.075 2.929-2.084zM16.067 14.285c.61-1.828 2.5-2.026 3.284-2.026h9.983c.784 0 2.674.198 3.305 2.085l1.798 4.412c-.32-.106-.738-.277-1.243-.482-2.007-.819-5.369-2.187-8.852-2.187-3.482 0-6.844 1.368-8.852 2.187-.523.212-.956.39-1.28.495-.01.004-.02.005-.03.008l1.887-4.492z"/></g></svg>