<svg xmlns="http://www.w3.org/2000/svg" width="48" height="48"><g fill="none" fill-rule="evenodd"><path fill="#CFD8DC" d="M11.31 38.52h2.922a1.895 1.895 0 0 0 1.901-1.884V23.884l.967 12.893c.038.502.27.959.656 1.287a1.894 1.894 0 0 0 1.381.452l2.915-.215a1.895 1.895 0 0 0 1.3-.65c.33-.38.493-.866.455-1.368l-1.216-16.204 2.208 16.803a1.898 1.898 0 0 0 2.13 1.625l2.897-.374c.505-.065.952-.32 1.263-.72.309-.398.443-.893.378-1.392l-.456-3.476 1.586 4.69a1.902 1.902 0 0 0 2.406 1.188l2.771-.92a1.883 1.883 0 0 0 1.2-2.385l-3.975-11.754a1.906 1.906 0 0 0-2.408-1.187l-2.77.92c-.017.005-.032.015-.05.022l-1.035-7.886a1.903 1.903 0 0 0-2.131-1.625l-2.898.373a1.892 1.892 0 0 0-1.49 1.118l-.266-3.54a1.89 1.89 0 0 0-2.037-1.739L17 10.035a1.902 1.902 0 0 0-1.289.64 1.898 1.898 0 0 0-1.48-.715H11.31a1.895 1.895 0 0 0-1.901 1.884v24.792c0 1.039.853 1.884 1.901 1.884z"/><path fill="#253238" d="M14.212 11.844v24.772l-2.883.02-.02-24.772 2.903-.02zm5.823-.144l1.855 24.704-2.874.232-1.873-24.703 2.892-.233zm6.796 3.778l2.728 20.77-2.855.388-2.749-20.766 2.876-.392zm6.345 8.492l3.969 11.734-2.727.926-3.987-11.728 2.745-.932zM11.31 38.52h2.923a1.895 1.895 0 0 0 1.901-1.884V23.884l.967 12.893c.038.502.27.959.656 1.287a1.894 1.894 0 0 0 1.381.452l2.915-.215a1.895 1.895 0 0 0 1.3-.65c.33-.38.493-.866.455-1.368l-1.216-16.204L24.8 36.882a1.898 1.898 0 0 0 2.13 1.625l2.897-.374c.505-.065.952-.32 1.263-.72.309-.398.443-.893.378-1.392l-.456-3.476 1.586 4.69a1.902 1.902 0 0 0 2.406 1.188l2.771-.92a1.883 1.883 0 0 0 1.2-2.385L35 23.364a1.906 1.906 0 0 0-2.408-1.187l-2.77.92c-.017.005-.032.015-.05.022l-1.035-7.886a1.903 1.903 0 0 0-2.131-1.625l-2.898.373a1.892 1.892 0 0 0-1.49 1.118l-.266-3.54a1.89 1.89 0 0 0-2.037-1.739L17 10.035a1.902 1.902 0 0 0-1.289.64 1.898 1.898 0 0 0-1.48-.715H11.31a1.895 1.895 0 0 0-1.901 1.884v24.792c0 1.039.853 1.884 1.901 1.884z"/><path fill="#FFF" fill-opacity=".5" d="M20.035 11.7l1.855 24.704-2.874.232-1.873-24.703zm13.141 12.27l3.969 11.734-2.727.926-3.987-11.728z"/></g></svg>