<svg xmlns="http://www.w3.org/2000/svg" width="48" height="48"><g fill="none" fill-rule="evenodd"><path fill="#CFD8DC" d="M18 14.005h-6.02A2.984 2.984 0 0 0 9 16.986v10.047c0 .73.406 1.362 1 1.7v7.327a2.928 2.928 0 0 0 2.924 2.924h22.152A2.928 2.928 0 0 0 38 36.06v-7.328c.594-.337 1-.968 1-1.698V16.986a2.984 2.984 0 0 0-2.98-2.981H18z"/><path fill="#FFF" fill-opacity=".5" d="M26 25.25v3.745h-4V25.25c0-.128.105-.235.235-.235h3.53c.13 0 .235.107.235.235z"/><path fill="#253238" d="M36.02 13.995A2.985 2.985 0 0 1 39 16.98v10.058c0 .73-.406 1.363-1 1.7v7.336A2.93 2.93 0 0 1 35.076 39H12.924A2.93 2.93 0 0 1 10 36.073v-7.336c-.594-.337-1-.97-1-1.7V16.979a2.985 2.985 0 0 1 2.98-2.984H18v-2.012A2.984 2.984 0 0 1 20.979 9H27a2.984 2.984 0 0 1 2.979 2.983v2.012h6.041zM36 36.073v-7.072h-8v.835c0 .642-.523 1.167-1.167 1.167h-5.666A1.169 1.169 0 0 1 20 29.836V29h-8v7.072c0 .51.415.925.924.925h22.152a.926.926 0 0 0 .924-.925zm-11-4.07a1 1 0 0 1 0 2.002h-2a1 1 0 0 1 0-2.002h2zm1-6.751a.235.235 0 0 0-.235-.235h-3.53a.235.235 0 0 0-.235.235V29h4v-3.75zm-2.71 1.055c.37-.37 1.04-.37 1.42 0 .18.19.29.45.29.71a.991.991 0 0 1-1 1.002.99.99 0 0 1-1-1.001c0-.26.11-.52.29-.711zm-11.31-10.31c-.54 0-.98.44-.98.982V27h9v-1.747a2.24 2.24 0 0 1 2.235-2.238h3.53A2.24 2.24 0 0 1 28 25.252v1.747h9v-10.02a.982.982 0 0 0-.98-.982H11.98zM20 11.983v2.012h7.979v-2.012a.981.981 0 0 0-.979-.98h-6.021a.98.98 0 0 0-.979.98z"/></g></svg>