<svg xmlns="http://www.w3.org/2000/svg" width="48" height="48"><g fill="none" fill-rule="evenodd"><path fill="#13C1AC" fill-opacity=".35" d="M33.78 11.389l4.397 7.451c.364.617.36 1.342.007 1.964-.339.596-.736.975-1.69 1.06v11.258a5.904 5.904 0 0 1-5.917 5.938H17.62a5.904 5.904 0 0 1-5.917-5.938V21.865c-.954-.086-1.351-.457-1.69-1.054-.353-.622-.368-1.354-.004-1.97l4.408-7.453c.388-.658 1.13-1.035 1.934-1.035h2.039c.066-.957.912-1.913 1.954-1.913h1.788c1.042 0 1.888.956 1.954 1.913h7.76c.805 0 1.545.377 1.933 1.036z"/><path fill="#13C1AC" d="M30.577 37.147h-1.711V32.6c0-1.714-1.39-3.11-3.098-3.11H22.43a3.108 3.108 0 0 0-3.1 3.11v4.546h-1.71c-2.188 0-4.01-1.83-4.01-4.025V21.836h20.977v11.286c0 2.196-1.822 4.025-4.01 4.025zm-3.618 0h-5.721V32.6c0-.659.535-1.196 1.192-1.196h3.338c.657 0 1.191.537 1.191 1.196v4.546zm-10.79-24.783a.23.23 0 0 1 .182-.097h2.026v.957c0 .528.428.957.954.957a.956.956 0 0 0 .953-.957l.06-2.87 1.847.06v2.81c0 .528.428.957.954.957a.956.956 0 0 0 .953-.957v-.957h7.749c.106 0 .17.08.18.098l4.41 7.443c-.008.014-.062.114-.183.114H11.943c-.09 0-.142-.073-.167-.068l4.393-7.49zm17.61-.975l4.398 7.451c.364.617.36 1.342.007 1.964-.339.596-.736.975-1.69 1.06v11.258a5.904 5.904 0 0 1-5.917 5.938H17.62a5.904 5.904 0 0 1-5.917-5.938V21.865c-.954-.086-1.351-.457-1.69-1.054-.353-.622-.368-1.354-.004-1.97l4.408-7.453c.388-.658 1.13-1.035 1.934-1.035h2.039c.066-.957.912-1.913 1.954-1.913h1.788c1.042 0 1.888.956 1.954 1.913h7.76c.805 0 1.545.377 1.933 1.036zM18.377 24.707a.956.956 0 0 0-.953.957v.957c0 .528.427.957.953.957a.956.956 0 0 0 .954-.957v-.957a.956.956 0 0 0-.954-.957zm3.815 0a.956.956 0 0 0-.954.957v.957c0 .528.427.957.954.957a.956.956 0 0 0 .953-.957v-.957a.956.956 0 0 0-.953-.957zm3.814 0a.956.956 0 0 0-.954.957v.957c0 .528.427.957.954.957a.956.956 0 0 0 .953-.957v-.957a.956.956 0 0 0-.953-.957zm3.814 0a.956.956 0 0 0-.954.957v.957c0 .528.427.957.954.957a.956.956 0 0 0 .953-.957v-.957a.956.956 0 0 0-.953-.957z"/><path fill="#FFF" fill-opacity=".5" d="M16.169 12.364a.23.23 0 0 1 .182-.097h2.026v.957c0 .528.428.957.954.957a.956.956 0 0 0 .953-.957l.06-2.87 1.847.06v2.81c0 .528.428.957.954.957a.956.956 0 0 0 .953-.957v-.957h7.749c.106 0 .17.08.18.098l4.41 7.443c-.008.014-.062.114-.183.114H11.943c-.09 0-.142-.073-.167-.068l4.393-7.49zm10.79 24.783h-5.721V32.6c0-.659.535-1.196 1.192-1.196h3.338c.657 0 1.191.537 1.191 1.196v4.546z"/></g></svg>