<svg xmlns="http://www.w3.org/2000/svg" width="48" height="48"><g fill="#13C1AC" fill-rule="evenodd"><path fill-opacity=".35" d="M12.832 38.718h-.125c-1.062 0-2-.5-2.75-1.25-1.374-1.5-1.25-3.874.25-5.374l12.874-12.873c-.875-2.875-.125-6 2-8.124 2-2 4.999-2.812 7.748-2.125.5.125.875.5 1.063 1 .125.5 0 1.062-.375 1.437l-3.437 3.437.5 2.375 2.25.437 3.437-3.437c.374-.375.937-.5 1.437-.375s.875.563 1 1.063c.687 2.75-.125 5.75-2.125 7.749-2.125 2.125-5.25 2.874-8.124 2L15.52 37.656c-.687.687-1.687 1.062-2.687 1.062z"/><path fill-rule="nonzero" d="M12.832 38.718h-.125c-1.062 0-2-.5-2.75-1.25-1.374-1.5-1.25-3.874.25-5.374l12.874-12.873c-.875-2.875-.125-6 2-8.124 2-2 4.999-2.812 7.748-2.125.5.125.875.5 1.063 1 .125.5 0 1.062-.375 1.437l-3.437 3.437.5 2.375 2.25.437 3.437-3.437c.374-.375.937-.5 1.437-.375s.875.563 1 1.063c.687 2.75-.125 5.75-2.125 7.749-2.125 2.125-5.25 2.874-8.124 2L15.52 37.656c-.687.687-1.687 1.062-2.687 1.062zm18.06-28.059c-1.625 0-3.25.625-4.437 1.813a6.173 6.173 0 0 0-1.374 6.686l.25.563-13.749 13.748c-.75.75-.875 2-.187 2.75.375.374.875.624 1.375.624.562 0 1.062-.187 1.437-.562l13.81-13.81.563.25c2.312.874 4.937.374 6.687-1.376a6.196 6.196 0 0 0 1.75-5.186l-2.938 2.937c-.375.375-.937.562-1.437.437l-2.562-.5a1.606 1.606 0 0 1-1.25-1.25l-.5-2.562c-.125-.5.063-1.062.438-1.437l3-3c-.376-.125-.626-.125-.876-.125z"/></g></svg>