<svg xmlns="http://www.w3.org/2000/svg" width="48" height="48"><g fill="none" fill-rule="evenodd"><path fill="#13C1AC" fill-opacity=".4" d="M37.012 17.986a1.462 1.462 0 0 0-.613-1.188.995.995 0 0 1-.412-.81c0-.322.15-.617.414-.81a1.463 1.463 0 0 0-.002-2.38 1.001 1.001 0 0 1 .588-1.81v-3h-4a1.001 1.001 0 0 1-1.807.593c-.548-.75-1.839-.748-2.385-.002-.383.52-1.235.518-1.615.002-.548-.75-1.839-.748-2.385-.002-.383.52-1.235.518-1.615.002-.548-.75-1.839-.748-2.385-.002-.383.52-1.235.518-1.615.002-.548-.75-1.839-.748-2.385-.002a1.001 1.001 0 0 1-1.808-.59h-4v3a1.001 1.001 0 0 1 .606 1.795 1.502 1.502 0 0 0-.589 1.204c0 .479.214.918.59 1.206.25.19.393.48.393.794a.995.995 0 0 1-.394.797 1.502 1.502 0 0 0-.589 1.203c0 .479.214.918.59 1.206.25.19.393.48.393.794a.995.995 0 0 1-.394.797 1.502 1.502 0 0 0-.589 1.203c0 .479.214.918.59 1.206.25.19.393.48.393.794a.995.995 0 0 1-.394.797 1.502 1.502 0 0 0-.589 1.203c0 .479.214.918.59 1.206.25.19.393.48.393.794a.995.995 0 0 1-.394.797 1.502 1.502 0 0 0-.589 1.203c0 .479.214.918.59 1.206.25.19.393.48.393.794a.995.995 0 0 1-.394.797 1.502 1.502 0 0 0-.589 1.204c0 .478.214.917.59 1.205a1.001 1.001 0 0 1-.607 1.795v3h4a1.001 1.001 0 0 1 1.808-.59c.57.777 1.813.779 2.384 0 .382-.522 1.233-.523 1.616 0 .57.777 1.813.779 2.384 0 .382-.522 1.233-.523 1.616 0 .57.777 1.813.779 2.384 0 .382-.522 1.233-.523 1.616 0a1.468 1.468 0 0 0 2.384 0 1.001 1.001 0 0 1 1.808.59h4v-3a1.001 1.001 0 0 1-.586-1.81 1.463 1.463 0 0 0-.002-2.38.995.995 0 0 1-.412-.81c0-.323.15-.617.414-.81a1.463 1.463 0 0 0-.002-2.38.995.995 0 0 1-.412-.81c0-.323.15-.617.414-.81a1.463 1.463 0 0 0-.002-2.38.995.995 0 0 1-.412-.81c0-.323.15-.617.414-.81a1.463 1.463 0 0 0-.002-2.38.995.995 0 0 1-.412-.81c0-.323.15-.617.414-.81.39-.285.612-.72.611-1.192"/><path fill="#13C1AC" d="M23.987 18.988c1.103 0 2 .898 2 2 0 1.104-.897 2-2 2s-2-.896-2-2c0-1.102.897-2 2-2m13.025-1.002c.001.473-.222.907-.61 1.192a.993.993 0 0 0-.415.81c0 .323.15.619.412.81a1.462 1.462 0 0 1 .002 2.38.993.993 0 0 0-.414.81c0 .323.15.619.412.81a1.462 1.462 0 0 1 .002 2.38.993.993 0 0 0-.414.81c0 .323.15.619.412.81a1.462 1.462 0 0 1 .002 2.38.993.993 0 0 0-.414.81c0 .324.15.618.412.81a1.462 1.462 0 0 1 .002 2.38 1.001 1.001 0 0 0 .586 1.81v3h-4a1.001 1.001 0 0 0-1.808-.59 1.466 1.466 0 0 1-2.384.002c-.383-.523-1.234-.523-1.616-.002-.57.78-1.814.778-2.384.002-.383-.523-1.234-.523-1.616-.002-.57.78-1.814.778-2.384.002-.383-.523-1.234-.523-1.616-.002-.57.78-1.814.778-2.384.002a1.001 1.001 0 0 0-1.808.589h-4v-3a1.001 1.001 0 0 0 .607-1.795 1.503 1.503 0 0 1-.59-1.206 1.5 1.5 0 0 1 .59-1.203.995.995 0 0 0 .393-.796.993.993 0 0 0-.393-.796 1.503 1.503 0 0 1-.59-1.205 1.5 1.5 0 0 1 .59-1.203.995.995 0 0 0 .393-.797.993.993 0 0 0-.393-.794 1.503 1.503 0 0 1-.59-1.206 1.5 1.5 0 0 1 .59-1.203.995.995 0 0 0 .393-.797.993.993 0 0 0-.393-.794 1.503 1.503 0 0 1-.59-1.206 1.5 1.5 0 0 1 .59-1.203.995.995 0 0 0 .393-.797.993.993 0 0 0-.393-.794 1.503 1.503 0 0 1-.59-1.206 1.5 1.5 0 0 1 .59-1.203.995.995 0 0 0 .393-.796.993.993 0 0 0-.393-.796 1.503 1.503 0 0 1-.59-1.204 1.5 1.5 0 0 1 .59-1.205 1.001 1.001 0 0 0-.606-1.796v-3h4a1.001 1.001 0 0 0 1.807.59c.546-.745 1.837-.747 2.385.003.38.517 1.232.519 1.615-.002.546-.747 1.837-.749 2.385.002.38.517 1.232.519 1.615-.002.546-.747 1.837-.749 2.385.002.38.517 1.232.519 1.615-.002.546-.747 1.837-.749 2.385.002a1.001 1.001 0 0 0 1.807-.592h4v3a1.001 1.001 0 0 0-.588 1.81 1.462 1.462 0 0 1 .002 2.38.993.993 0 0 0-.414.81c0 .322.15.617.412.81.39.282.612.716.613 1.188zM31.987 36.99c.883 0 1.67.39 2.22 1h.546a2.987 2.987 0 0 1-.766-2c0-.742.278-1.456.765-2a3.01 3.01 0 0 1-.765-2c0-.742.278-1.456.765-2a3.01 3.01 0 0 1-.765-2c0-.742.278-1.456.765-2a3.01 3.01 0 0 1-.765-2c0-.742.278-1.456.765-2a3.01 3.01 0 0 1-.765-2c0-.742.278-1.456.765-2a3.01 3.01 0 0 1-.765-2c0-.743.278-1.456.765-2a3.01 3.01 0 0 1-.765-2c0-.769.29-1.47.766-2h-.546c-.55.608-1.337 1-2.22 1a3.008 3.008 0 0 1-2-.766c-1.093.974-2.91.972-4 0-1.093.974-2.909.972-4 0-1.093.974-2.91.972-4 0a3.012 3.012 0 0 1-2 .765c-.883 0-1.67-.39-2.22-1h-.56a2.98 2.98 0 0 1 .018 4c.49.545.762 1.25.762 2 0 .752-.273 1.456-.762 2 .49.544.762 1.25.762 2 0 .752-.273 1.456-.762 2 .49.544.762 1.25.762 2 0 .752-.273 1.456-.762 2 .49.544.762 1.25.762 2 0 .752-.273 1.456-.762 2 .49.544.762 1.25.762 2 0 .752-.273 1.456-.762 2a2.977 2.977 0 0 1-.018 4h.56c.55-.608 1.337-1 2.22-1a3.01 3.01 0 0 1 2 .766c1.09-.973 2.91-.973 4 0 1.09-.973 2.91-.973 4 0 1.09-.973 2.91-.973 4 0a3.008 3.008 0 0 1 2-.765zm-1.706-24c.941 0 1.706.764 1.706 1.704v18.59c0 .94-.765 1.706-1.706 1.706H17.693a1.707 1.707 0 0 1-1.706-1.706v-18.59c0-.94.765-1.704 1.706-1.704h12.588zm-.294 20v-1.75c0-1.044-2.283-2.5-6-2.5s-6 1.456-6 2.5v1.75h12zm0-18h-12v13.217c1.443-.909 3.558-1.468 6-1.468s4.557.56 6 1.468V14.99zm-6 10c-2.206 0-4-1.794-4-4 0-2.207 1.794-4 4-4s4 1.793 4 4c0 2.206-1.794 4-4 4z"/><path fill="#FFF" fill-opacity=".7" d="M23.987 18.988c1.103 0 2 .898 2 2 0 1.104-.897 2-2 2s-2-.896-2-2c0-1.102.897-2 2-2m6 14h-12v-1.75c0-1.043 2.283-2.5 6-2.5s6 1.457 6 2.5v1.75z"/></g></svg>