<svg xmlns="http://www.w3.org/2000/svg" width="48" height="48"><g fill="none" fill-rule="evenodd"><path fill="#13C1AC" d="M25.414 11.5l3.293-3.292a.999.999 0 1 0-1.414-1.414L23.5 10.587l-3.793-3.793a.999.999 0 1 0-1.414 1.414l3.293 3.293H10.958A2.961 2.961 0 0 0 8 14.459v19.084a2.961 2.961 0 0 0 2.958 2.958H12a.99.99 0 0 0 1 .999.99.99 0 0 0 1-1h19a.99.99 0 0 0 1 .999.99.99 0 0 0 1-.998h2.042A2.961 2.961 0 0 0 40 33.543V14.459a2.961 2.961 0 0 0-2.958-2.958H25.414z" opacity=".453"/><path fill="#13C1AC" d="M38 18.5v15.043a.96.96 0 0 1-.958.958H10.958a.96.96 0 0 1-.958-.958V14.459a.96.96 0 0 1 .958-.958h26.084a.96.96 0 0 1 .958.958v4.04zm-12.586-7h11.628A2.961 2.961 0 0 1 40 14.46v19.084a2.961 2.961 0 0 1-2.958 2.958H35a.99.99 0 0 1-1 .999.99.99 0 0 1-1-1H14a.99.99 0 0 1-1 1 .99.99 0 0 1-1-1h-1.042A2.961 2.961 0 0 1 8 33.544V14.459a2.961 2.961 0 0 1 2.958-2.958h10.628l-3.293-3.293a.999.999 0 1 1 1.414-1.414l3.793 3.793 3.793-3.793a.999.999 0 1 1 1.414 1.414L25.414 11.5zm11.206 6.08c-.12.05-.23.12-.33.21-.18.19-.29.45-.29.71a.99.99 0 0 0 1 1 .99.99 0 0 0 1-1c0-.26-.11-.52-.29-.71a1 1 0 0 0-1.09-.21zm-.33 5.21c-.18.19-.29.45-.29.71 0 .27.1.52.29.71.1.09.21.17.33.21.12.06.25.08.38.08s.26-.02.38-.08c.12-.04.23-.12.33-.21a.99.99 0 0 0 .29-.71c0-.26-.11-.52-.29-.71-.38-.37-1.05-.37-1.42 0zm.33 4.79c-.13.05-.23.12-.33.21-.18.19-.29.45-.29.71a.99.99 0 0 0 1 1 .99.99 0 0 0 1-1c0-.26-.11-.52-.29-.71-.28-.27-.72-.37-1.09-.21zm-4.14 1.735c-.134.651-.92 1.375-1.588 1.462a66.216 66.216 0 0 1-15.78 0c-.67-.085-1.457-.81-1.59-1.453a27.516 27.516 0 0 1-.002-10.638c.135-.652.923-1.377 1.584-1.461a66.214 66.214 0 0 1 15.784-.001c.67.086 1.457.811 1.59 1.453.692 3.533.692 7.115.002 10.638zm-1.345-14.076a68.386 68.386 0 0 0-16.278.001c-1.512.194-2.99 1.559-3.297 3.053a29.515 29.515 0 0 0 .002 11.424c.305 1.485 1.783 2.851 3.303 3.045a68.289 68.289 0 0 0 16.27 0l.007-.001c1.512-.193 2.99-1.558 3.299-3.052a29.52 29.52 0 0 0-.003-11.425c-.305-1.484-1.782-2.849-3.304-3.045z"/><path fill="#FFF" d="M32.48 29.315c-.134.651-.92 1.375-1.588 1.462a66.216 66.216 0 0 1-15.78 0c-.67-.085-1.457-.81-1.59-1.453a27.516 27.516 0 0 1-.002-10.638c.135-.652.923-1.377 1.584-1.461a66.214 66.214 0 0 1 15.784-.001c.67.086 1.457.811 1.59 1.453.692 3.533.692 7.115.002 10.638" opacity=".789"/></g></svg>